HIERARCHY
ROOT hip
{
  OFFSET -5.44982e-005 106.236 -1.42206
  CHANNELS 6 Xposition Yposition Zposition Zrotation Xrotation Yrotation
  JOINT abdomen
  {
    OFFSET 0 -1.186 -1.50178
    CHANNELS 6 Xposition Yposition Zposition Zrotation Xrotation Yrotation
    JOINT abdomen2
    {
      OFFSET 0 9.964 0.21338
      CHANNELS 6 Xposition Yposition Zposition Zrotation Xrotation Yrotation
      JOINT chest
      {
        OFFSET 0 13.134 -3.25729
        CHANNELS 6 Xposition Yposition Zposition Zrotation Xrotation Yrotation
        JOINT neck
        {
          OFFSET 0 20.686 -1.69049
          CHANNELS 6 Xposition Yposition Zposition Zrotation Xrotation Yrotation
          JOINT head
          {
            OFFSET 0 7.23799 -0.12368
            CHANNELS 6 Xposition Yposition Zposition Zrotation Xrotation Yrotation
            End Site
            {
              OFFSET 0 10.017 2.38717
            }
          }
        }
        JOINT lCollar
        {
          OFFSET 1.70688 20.075 5.0056
          CHANNELS 6 Xposition Yposition Zposition Zrotation Xrotation Yrotation
          JOINT lShldr
          {
            OFFSET 13.6458 -0.047012 -4.84902
            CHANNELS 6 Xposition Yposition Zposition Zrotation Xrotation Yrotation
            JOINT lForeArm
            {
              OFFSET 28.3255 -0.975903 2.28883
              CHANNELS 6 Xposition Yposition Zposition Zrotation Xrotation Yrotation
              JOINT lHand
              {
                OFFSET 22.1583 -0.530035 10.8316
                CHANNELS 6 Xposition Yposition Zposition Zrotation Xrotation Yrotation
                JOINT lThumb1
                {
                  OFFSET 0.785995 0.111999 2.58168
                  CHANNELS 6 Xposition Yposition Zposition Zrotation Xrotation Yrotation
                  JOINT lThumb2
                  {
                    OFFSET 0.3601 -0.878005 4.2331
                    CHANNELS 6 Xposition Yposition Zposition Zrotation Xrotation Yrotation
                    End Site
                    {
                      OFFSET 1.81271 -1.21601 2.2227
                    }
                  }
                }
                JOINT lCarpal1
                {
                  OFFSET 0.9571 1.114 1.76948
                  CHANNELS 6 Xposition Yposition Zposition Zrotation Xrotation Yrotation
                  JOINT lIndex1
                  {
                    OFFSET 4.1246 0.487 4.1451
                    CHANNELS 6 Xposition Yposition Zposition Zrotation Xrotation Yrotation
                    JOINT lIndex2
                    {
                      OFFSET 3.40521 -1.45401 2.7682
                      CHANNELS 6 Xposition Yposition Zposition Zrotation Xrotation Yrotation
                      End Site
                      {
                        OFFSET 1.4531 -1.795 1.2713
                      }
                    }
                  }
                  JOINT lMid1
                  {
                    OFFSET 5.6954 0.209991 2.1184
                    CHANNELS 6 Xposition Yposition Zposition Zrotation Xrotation Yrotation
                    JOINT lMid2
                    {
                      OFFSET 3.9766 -1.53999 2.3863
                      CHANNELS 6 Xposition Yposition Zposition Zrotation Xrotation Yrotation
                      End Site
                      {
                        OFFSET 1.4042 -1.926 1.125
                      }
                    }
                  }
                }
                JOINT lCarpal2
                {
                  OFFSET 2.09559 0.65999 -0.38939
                  CHANNELS 6 Xposition Yposition Zposition Zrotation Xrotation Yrotation
                  JOINT lRing1
                  {
                    OFFSET 5.0395 -0.089997 2.49707
                    CHANNELS 6 Xposition Yposition Zposition Zrotation Xrotation Yrotation
                    JOINT lRing2
                    {
                      OFFSET 3.7921 -1.552 1.4806
                      CHANNELS 6 Xposition Yposition Zposition Zrotation Xrotation Yrotation
                      End Site
                      {
                        OFFSET 1.4655 -1.808 0.9609
                      }
                    }
                  }
                  JOINT lPinky1
                  {
                    OFFSET 4.9141 -1.269 0.35915
                    CHANNELS 6 Xposition Yposition Zposition Zrotation Xrotation Yrotation
                    JOINT lPinky2
                    {
                      OFFSET 3.1477 -1.685 0.84623
                      CHANNELS 6 Xposition Yposition Zposition Zrotation Xrotation Yrotation
                      End Site
                      {
                        OFFSET 0.805505 -1.58499 0.79549
                      }
                    }
                  }
                }
              }
            }
          }
        }
        JOINT rCollar
        {
          OFFSET -1.70688 20.075 5.0056
          CHANNELS 6 Xposition Yposition Zposition Zrotation Xrotation Yrotation
          JOINT rShldr
          {
            OFFSET -13.6458 -0.047012 -4.84902
            CHANNELS 6 Xposition Yposition Zposition Zrotation Xrotation Yrotation
            JOINT rForeArm
            {
              OFFSET -28.3255 -0.975903 2.28883
              CHANNELS 6 Xposition Yposition Zposition Zrotation Xrotation Yrotation
              JOINT rHand
              {
                OFFSET -22.1583 -0.530036 10.8316
                CHANNELS 6 Xposition Yposition Zposition Zrotation Xrotation Yrotation
                JOINT rThumb1
                {
                  OFFSET -0.785995 0.111999 2.58168
                  CHANNELS 6 Xposition Yposition Zposition Zrotation Xrotation Yrotation
                  JOINT rThumb2
                  {
                    OFFSET -0.3601 -0.878005 4.2331
                    CHANNELS 6 Xposition Yposition Zposition Zrotation Xrotation Yrotation
                    End Site
                    {
                      OFFSET -1.81271 -1.21601 2.2227
                    }
                  }
                }
                JOINT rCarpal1
                {
                  OFFSET -0.9571 1.114 1.76948
                  CHANNELS 6 Xposition Yposition Zposition Zrotation Xrotation Yrotation
                  JOINT rIndex1
                  {
                    OFFSET -4.1246 0.487 4.1451
                    CHANNELS 6 Xposition Yposition Zposition Zrotation Xrotation Yrotation
                    JOINT rIndex2
                    {
                      OFFSET -3.40521 -1.45401 2.7682
                      CHANNELS 6 Xposition Yposition Zposition Zrotation Xrotation Yrotation
                      End Site
                      {
                        OFFSET -1.4531 -1.795 1.2713
                      }
                    }
                  }
                  JOINT rMid1
                  {
                    OFFSET -5.6954 0.209991 2.1184
                    CHANNELS 6 Xposition Yposition Zposition Zrotation Xrotation Yrotation
                    JOINT rMid2
                    {
                      OFFSET -3.9766 -1.53999 2.3863
                      CHANNELS 6 Xposition Yposition Zposition Zrotation Xrotation Yrotation
                      End Site
                      {
                        OFFSET -1.4042 -1.926 1.125
                      }
                    }
                  }
                }
                JOINT rCarpal2
                {
                  OFFSET -2.09559 0.65999 -0.38939
                  CHANNELS 6 Xposition Yposition Zposition Zrotation Xrotation Yrotation
                  JOINT rRing1
                  {
                    OFFSET -5.0395 -0.089997 2.49707
                    CHANNELS 6 Xposition Yposition Zposition Zrotation Xrotation Yrotation
                    JOINT rRing2
                    {
                      OFFSET -3.7921 -1.552 1.4806
                      CHANNELS 6 Xposition Yposition Zposition Zrotation Xrotation Yrotation
                      End Site
                      {
                        OFFSET -1.4655 -1.808 0.9609
                      }
                    }
                  }
                  JOINT rPinky1
                  {
                    OFFSET -4.9141 -1.269 0.35915
                    CHANNELS 6 Xposition Yposition Zposition Zrotation Xrotation Yrotation
                    JOINT rPinky2
                    {
                      OFFSET -3.1477 -1.685 0.84623
                      CHANNELS 6 Xposition Yposition Zposition Zrotation Xrotation Yrotation
                      End Site
                      {
                        OFFSET -0.805505 -1.58499 0.79549
                      }
                    }
                  }
                }
              }
            }
          }
        }
      }
    }
  }
  JOINT lThigh
  {
    OFFSET 8.367 -8.2066 0.59823
    CHANNELS 6 Xposition Yposition Zposition Zrotation Xrotation Yrotation
    JOINT lShin
    {
      OFFSET 2.19232 -43.463 -0.493181
      CHANNELS 6 Xposition Yposition Zposition Zrotation Xrotation Yrotation
      JOINT lFoot
      {
        OFFSET 0.733257 -45.8593 -2.64513
        CHANNELS 6 Xposition Yposition Zposition Zrotation Xrotation Yrotation
        End Site
        {
          OFFSET 2.6618 -4.26993 12.3931
        }
      }
    }
  }
  JOINT rThigh
  {
    OFFSET -8.367 -8.2066 0.59823
    CHANNELS 6 Xposition Yposition Zposition Zrotation Xrotation Yrotation
    JOINT rShin
    {
      OFFSET -2.19233 -43.463 -0.493108
      CHANNELS 6 Xposition Yposition Zposition Zrotation Xrotation Yrotation
      JOINT rFoot
      {
        OFFSET -0.733256 -45.8593 -2.64514
        CHANNELS 6 Xposition Yposition Zposition Zrotation Xrotation Yrotation
        End Site
        {
          OFFSET -2.6618 -4.26993 12.3931
        }
      }
    }
  }
}
MOTION
Frames:	4
Frame Time:	0.0333333
4.28106 98.8201 -4.76104 -6.97443 -6.0865 -52.5307 8.88179e-016 -1.186 -1.50178 -1.29808 6.09006 -2.66372 0 9.964 0.21338 -3.30684 11.5445 0.891451 1.77636e-015 13.134 -3.25729 -2.95541 11.6852 -0.334734 0 20.686 -1.69049 10.513 -9.52464 8.41656 0 7.23799 -0.12368 -10.7332 10.4255 34.2224 1.70688 20.075 5.0056 4.36939 -5.86955 1.19732 13.6458 -0.047012 -4.84902 -35.9852 14.5208 15.3942 28.3255 -0.975903 2.28883 1.37176 -4.511 -57.4565 22.1583 -0.530035 10.8316 -27.2825 -29.9251 -24.4024 0.785995 0.111999 2.58168 3.18055e-015 -1.59028e-015 -1.59028e-015 0.3601 -0.878005 4.2331 6.36111e-015 0 -7.95139e-016 0.9571 1.114 1.76948 3.18055e-015 -1.59028e-015 -1.59028e-015 4.1246 0.487 4.1451 6.36111e-015 0 -7.95139e-016 3.40521 -1.45401 2.7682 3.18055e-015 -1.59028e-015 1.59028e-015 5.6954 0.209991 2.1184 6.36111e-015 0 -7.95139e-016 3.9766 -1.53999 2.3863 3.18055e-015 -1.59028e-015 1.59028e-015 2.09559 0.65999 -0.38939 3.18055e-015 -1.59028e-015 -1.59028e-015 5.0395 -0.089997 2.49707 6.36111e-015 0 -7.95139e-016 3.7921 -1.552 1.4806 3.18055e-015 -1.59028e-015 1.59028e-015 4.9141 -1.269 0.35915 6.36111e-015 0 -7.95139e-016 3.1477 -1.685 0.84623 3.18055e-015 -1.59028e-015 1.59028e-015 -1.70688 20.075 5.0056 5.83785 -8.13671 -2.86473 -13.6458 -0.047012 -4.84902 44.558 8.93664 -20.3081 -28.3255 -0.975903 2.28883 -3.49733 -4.79041 62.3762 -22.1583 -0.530036 10.8316 16.1674 -36.3551 13.6772 -0.785995 0.111999 2.58168 2.78299e-015 -6.36111e-015 -5.1684e-015 -0.3601 -0.878005 4.2331 -0 0 2.38542e-015 -0.9571 1.114 1.76948 2.78299e-015 -6.36111e-015 -5.1684e-015 -4.1246 0.487 4.1451 -0 0 2.38542e-015 -3.40521 -1.45401 2.7682 -5.56597e-015 0 1.98785e-015 -5.6954 0.209991 2.1184 -0 0 2.38542e-015 -3.9766 -1.53999 2.3863 -5.56597e-015 0 1.98785e-015 -2.09559 0.65999 -0.38939 2.78299e-015 -6.36111e-015 -5.1684e-015 -5.0395 -0.089997 2.49707 -0 0 2.38542e-015 -3.7921 -1.552 1.4806 -5.56597e-015 0 1.98785e-015 -4.9141 -1.269 0.35915 -0 0 2.38542e-015 -3.1477 -1.685 0.84623 -5.56597e-015 0 1.98785e-015 8.367 -8.2066 0.59823 30.8285 -9.45747 18.3722 2.19232 -43.463 -0.493181 -3.37996 41.5111 4.07184 0.733257 -45.8593 -2.64513 -21.5583 -10.9825 2.88013 -8.367 -8.2066 0.59823 -28.491 -21.147 -18.802 -2.19233 -43.463 -0.493108 -2.70432 43.5629 0.214539 -0.733256 -45.8593 -2.64514 18.9083 -4.90664 0.407942 
3.89466 98.3393 -7.53412 -5.82747 -5.77631 -48.8614 -4.44089e-016 -1.186 -1.50178 -1.07959 6.69403 -2.28494 0 9.964 0.21338 -3.13946 11.3031 0.835597 0 13.134 -3.25729 -2.82745 11.4286 -0.241918 0 20.686 -1.69049 9.38603 -8.08939 10.0879 -1.77636e-015 7.23799 -0.12368 -9.35453 8.95638 29.4546 1.70688 20.075 5.0056 7.27193 -4.09927 0.778078 13.6458 -0.047012 -4.84902 -38.2511 7.94653 13.153 28.3255 -0.975903 2.28883 1.30817 -4.64371 -59.0878 22.1583 -0.530035 10.8316 -24.56 -29.1482 -20.4609 0.785995 0.111999 2.58168 3.18055e-015 0 -6.36111e-015 0.3601 -0.878005 4.2331 9.54166e-015 1.59028e-015 -3.18055e-015 0.9571 1.114 1.76948 3.18055e-015 0 -6.36111e-015 4.1246 0.487 4.1451 9.54166e-015 1.59028e-015 -3.18055e-015 3.40521 -1.45401 2.7682 -1.76556e-031 -6.36111e-015 -1.59028e-015 5.6954 0.209991 2.1184 9.54166e-015 1.59028e-015 -3.18055e-015 3.9766 -1.53999 2.3863 -1.76556e-031 -6.36111e-015 -1.59028e-015 2.09559 0.65999 -0.38939 3.18055e-015 0 -6.36111e-015 5.0395 -0.089997 2.49707 9.54166e-015 1.59028e-015 -3.18055e-015 3.7921 -1.552 1.4806 -1.76556e-031 -6.36111e-015 -1.59028e-015 4.9141 -1.269 0.35915 9.54166e-015 1.59028e-015 -3.18055e-015 3.1477 -1.685 0.84623 -1.76556e-031 -6.36111e-015 -1.59028e-015 -1.70688 20.075 5.0056 7.71903 -7.45008 -2.04372 -13.6458 -0.047012 -4.84902 43.075 2.17623 -21.8676 -28.3255 -0.975903 2.28883 -3.44047 -4.89842 63.7113 -22.1583 -0.530036 10.8316 14.465 -36.1848 13.5252 -0.785995 0.111999 2.58168 -4.37326e-015 -3.18055e-015 6.95746e-015 -0.3601 -0.878005 4.2331 4.37326e-015 3.18055e-015 4.77083e-015 -0.9571 1.114 1.76948 -4.37326e-015 -3.18055e-015 6.95746e-015 -4.1246 0.487 4.1451 4.37326e-015 3.18055e-015 4.77083e-015 -3.40521 -1.45401 2.7682 1.19271e-015 6.36111e-015 -5.36719e-015 -5.6954 0.209991 2.1184 4.37326e-015 3.18055e-015 4.77083e-015 -3.9766 -1.53999 2.3863 1.19271e-015 6.36111e-015 -5.36719e-015 -2.09559 0.65999 -0.38939 -4.37326e-015 -3.18055e-015 6.95746e-015 -5.0395 -0.089997 2.49707 4.37326e-015 3.18055e-015 4.77083e-015 -3.7921 -1.552 1.4806 1.19271e-015 6.36111e-015 -5.36719e-015 -4.9141 -1.269 0.35915 4.37326e-015 3.18055e-015 4.77083e-015 -3.1477 -1.685 0.84623 1.19271e-015 6.36111e-015 -5.36719e-015 8.367 -8.2066 0.59823 31.5356 -13.74 17.2969 2.19232 -43.463 -0.493181 -3.25763 40.6911 3.94192 0.733257 -45.8593 -2.64513 -21.6875 -7.48693 0.0836967 -8.367 -8.2066 0.59823 -25.6991 -23.7689 -13.048 -2.19233 -43.463 -0.493108 -3.10445 47.7823 0.493291 -0.733256 -45.8593 -2.64514 18.6378 -9.74978 4.983 
3.66561 97.79 -10.1621 -4.68281 -5.54172 -45.6033 -8.88179e-016 -1.186 -1.50178 -0.863657 7.29617 -1.91029 -1.77636e-015 9.964 0.21338 -2.99954 11.074 0.787577 0 13.134 -3.25729 -2.72992 11.1843 -0.14513 0 20.686 -1.69049 8.30261 -6.5461 12.1155 0 7.23799 -0.12368 -7.9744 7.49791 24.8347 1.70688 20.075 5.0056 10.7191 -2.31533 0.166395 13.6458 -0.047012 -4.84902 -40.8426 1.94314 10.2736 28.3255 -0.975903 2.28883 1.32308 -4.6897 -59.642 22.1583 -0.530035 10.8316 -23.3907 -29.873 -18.8227 0.785995 0.111999 2.58168 -3.18055e-015 9.54166e-015 -4.77083e-015 0.3601 -0.878005 4.2331 -3.18055e-015 0 -7.95139e-015 0.9571 1.114 1.76948 -3.18055e-015 9.54166e-015 -4.77083e-015 4.1246 0.487 4.1451 -3.18055e-015 0 -7.95139e-015 3.40521 -1.45401 2.7682 6.36111e-015 4.77083e-015 -0 5.6954 0.209991 2.1184 -3.18055e-015 0 -7.95139e-015 3.9766 -1.53999 2.3863 6.36111e-015 4.77083e-015 -0 2.09559 0.65999 -0.38939 -3.18055e-015 9.54166e-015 -4.77083e-015 5.0395 -0.089997 2.49707 -3.18055e-015 0 -7.95139e-015 3.7921 -1.552 1.4806 6.36111e-015 4.77083e-015 -0 4.9141 -1.269 0.35915 -3.18055e-015 0 -7.95139e-015 3.1477 -1.685 0.84623 6.36111e-015 4.77083e-015 -0 -1.70688 20.075 5.0056 9.70591 -6.70935 -1.15438 -13.6458 -0.047012 -4.84902 40.8342 -4.76699 -23.3253 -28.3255 -0.975903 2.28883 -3.38263 -4.9893 64.9159 -22.1583 -0.530036 10.8316 13.4805 -36.0421 13.9254 -0.785995 0.111999 2.58168 1.98785e-015 -3.18055e-015 -5.56597e-015 -0.3601 -0.878005 4.2331 -3.18055e-015 -3.18055e-015 -2.38542e-015 -0.9571 1.114 1.76948 1.98785e-015 -3.18055e-015 -5.56597e-015 -4.1246 0.487 4.1451 -3.18055e-015 -3.18055e-015 -2.38542e-015 -3.40521 -1.45401 2.7682 2.64834e-031 6.36111e-015 -2.38542e-015 -5.6954 0.209991 2.1184 -3.18055e-015 -3.18055e-015 -2.38542e-015 -3.9766 -1.53999 2.3863 2.64834e-031 6.36111e-015 -2.38542e-015 -2.09559 0.65999 -0.38939 1.98785e-015 -3.18055e-015 -5.56597e-015 -5.0395 -0.089997 2.49707 -3.18055e-015 -3.18055e-015 -2.38542e-015 -3.7921 -1.552 1.4806 2.64834e-031 6.36111e-015 -2.38542e-015 -4.9141 -1.269 0.35915 -3.18055e-015 -3.18055e-015 -2.38542e-015 -3.1477 -1.685 0.84623 2.64834e-031 6.36111e-015 -2.38542e-015 8.367 -8.2066 0.59823 31.9134 -17.5859 16.689 2.19232 -43.463 -0.493181 -3.03482 39.0927 3.67701 0.733257 -45.8593 -2.64513 -21.8896 -3.35456 -2.92151 -8.367 -8.2066 0.59823 -22.545 -26.2021 -6.47303 -2.19233 -43.463 -0.493108 -3.53054 51.455 0.811077 -0.733256 -45.8593 -2.64514 18.1651 -13.696 9.57764 
3.35141 97.2506 -12.8713 -3.53879 -5.26447 -42.1565 0 -1.186 -1.50178 -0.645713 7.8991 -1.54111 0 9.964 0.21338 -2.84641 10.8386 0.738091 0 13.134 -3.25729 -2.61696 10.9307 -0.048013 3.55271e-015 20.686 -1.69049 7.20745 -5.02103 14.0398 1.77636e-015 7.23799 -0.12368 -6.62118 6.01117 20.2472 1.70688 20.075 5.0056 13.9302 -0.601106 -0.43067 13.6458 -0.047012 -4.84902 -43.6753 -3.82999 6.77648 28.3255 -0.975903 2.28883 1.27556 -4.70227 -59.8241 22.1583 -0.530035 10.8316 -22.0699 -30.4455 -17.2567 0.785995 0.111999 2.58168 -3.18055e-015 -3.18055e-015 6.36111e-015 0.3601 -0.878005 4.2331 -3.18055e-015 -9.54166e-015 3.18055e-015 0.9571 1.114 1.76948 -3.18055e-015 -3.18055e-015 6.36111e-015 4.1246 0.487 4.1451 -3.18055e-015 -9.54166e-015 3.18055e-015 3.40521 -1.45401 2.7682 -3.18055e-015 0 -0 5.6954 0.209991 2.1184 -3.18055e-015 -9.54166e-015 3.18055e-015 3.9766 -1.53999 2.3863 -3.18055e-015 0 -0 2.09559 0.65999 -0.38939 -3.18055e-015 -3.18055e-015 6.36111e-015 5.0395 -0.089997 2.49707 -3.18055e-015 -9.54166e-015 3.18055e-015 3.7921 -1.552 1.4806 -3.18055e-015 0 -0 4.9141 -1.269 0.35915 -3.18055e-015 -9.54166e-015 3.18055e-015 3.1477 -1.685 0.84623 -3.18055e-015 0 -0 -1.70688 20.075 5.0056 11.6091 -5.92704 -0.291576 -13.6458 -0.047012 -4.84902 38.2396 -11.8642 -24.7409 -28.3255 -0.975903 2.28883 -3.34068 -5.05255 65.7286 -22.1583 -0.530036 10.8316 12.5302 -35.6752 14.251 -0.785995 0.111999 2.58168 -7.95139e-016 0 -1.19271e-015 -0.3601 -0.878005 4.2331 1.98785e-015 0 -5.96354e-016 -0.9571 1.114 1.76948 -7.95139e-016 0 -1.19271e-015 -4.1246 0.487 4.1451 1.98785e-015 0 -5.96354e-016 -3.40521 -1.45401 2.7682 1.19271e-015 0 5.96354e-016 -5.6954 0.209991 2.1184 1.98785e-015 0 -5.96354e-016 -3.9766 -1.53999 2.3863 1.19271e-015 0 5.96354e-016 -2.09559 0.65999 -0.38939 -7.95139e-016 0 -1.19271e-015 -5.0395 -0.089997 2.49707 1.98785e-015 0 -5.96354e-016 -3.7921 -1.552 1.4806 1.19271e-015 0 5.96354e-016 -4.9141 -1.269 0.35915 1.98785e-015 0 -5.96354e-016 -3.1477 -1.685 0.84623 1.19271e-015 0 5.96354e-016 8.367 -8.2066 0.59823 31.8996 -21.1298 16.1159 2.19232 -43.463 -0.493181 -2.73426 36.7919 3.3051 0.733257 -45.8593 -2.64513 -21.9626 0.98002 -5.68077 -8.367 -8.2066 0.59823 -19.3098 -28.1168 -0.359437 -2.19233 -43.463 -0.493108 -3.97768 54.7816 1.16985 -0.733256 -45.8593 -2.64514 17.4973 -16.922 14.1717 
